<svg width="572" height="512" viewBox="0 0 572 512" fill="none" xmlns="http://www.w3.org/2000/svg">
<path d="M0 24C0 10.7 10.7 0 24 0H69.5C91.5 0 111 12.8 120.1 32H531.1C557.4 32 576.6 57 569.7 82.4L528.7 234.7C520.2 266.1 491.7 288 459.2 288H170.7L176.1 316.5C178.3 327.8 188.2 336 199.7 336H488C501.3 336 512 346.7 512 360C512 373.3 501.3 384 488 384H199.7C165.1 384 135.4 359.4 129 325.5L77.4 54.5C76.7 50.7 73.4 48 69.5 48H24C10.7 48 0 37.3 0 24ZM128 464C128 457.697 129.242 451.455 131.654 445.631C134.066 439.808 137.602 434.516 142.059 430.059C146.516 425.602 151.808 422.066 157.631 419.654C163.455 417.242 169.697 416 176 416C182.303 416 188.545 417.242 194.369 419.654C200.192 422.066 205.484 425.602 209.941 430.059C214.398 434.516 217.934 439.808 220.346 445.631C222.758 451.455 224 457.697 224 464C224 470.303 222.758 476.545 220.346 482.369C217.934 488.192 214.398 493.484 209.941 497.941C205.484 502.398 200.192 505.934 194.369 508.346C188.545 510.758 182.303 512 176 512C169.697 512 163.455 510.758 157.631 508.346C151.808 505.934 146.516 502.398 142.059 497.941C137.602 493.484 134.066 488.192 131.654 482.369C129.242 476.545 128 470.303 128 464ZM464 416C476.73 416 488.939 421.057 497.941 430.059C506.943 439.061 512 451.27 512 464C512 476.73 506.943 488.939 497.941 497.941C488.939 506.943 476.73 512 464 512C451.27 512 439.061 506.943 430.059 497.941C421.057 488.939 416 476.73 416 464C416 451.27 421.057 439.061 430.059 430.059C439.061 421.057 451.27 416 464 416Z" fill="white"/>
</svg>
