<svg width="31" height="32" viewBox="0 0 31 32" fill="none" xmlns="http://www.w3.org/2000/svg">
<g clip-path="url(#clip0_14_14)">
<path d="M15.8614 8.81245C11.5612 8.81245 8.09258 12.0187 8.09258 15.9937C8.09258 19.9687 11.5612 23.1749 15.8614 23.1749C20.1616 23.1749 23.6302 19.9687 23.6302 15.9937C23.6302 12.0187 20.1616 8.81245 15.8614 8.81245ZM15.8614 20.6625C13.0825 20.6625 10.8106 18.5687 10.8106 15.9937C10.8106 13.4187 13.0757 11.325 15.8614 11.325C18.6471 11.325 20.9121 13.4187 20.9121 15.9937C20.9121 18.5687 18.6403 20.6625 15.8614 20.6625ZM25.76 8.5187C25.76 9.44995 24.9487 10.1937 23.948 10.1937C22.9405 10.1937 22.1359 9.4437 22.1359 8.5187C22.1359 7.5937 22.9473 6.8437 23.948 6.8437C24.9487 6.8437 25.76 7.5937 25.76 8.5187ZM30.9054 10.2187C30.7905 7.97495 30.236 5.98745 28.4578 4.34995C26.6863 2.71245 24.5362 2.19995 22.1089 2.08745C19.6072 1.9562 12.1088 1.9562 9.60713 2.08745C7.18656 2.1937 5.03645 2.7062 3.25821 4.3437C1.47997 5.9812 0.932298 7.9687 0.810593 10.2125C0.668604 12.525 0.668604 19.4562 0.810593 21.7687C0.925536 24.0124 1.47997 26 3.25821 27.6375C5.03645 29.275 7.1798 29.7875 9.60713 29.9C12.1088 30.0312 19.6072 30.0312 22.1089 29.9C24.5362 29.7937 26.6863 29.2812 28.4578 27.6375C30.2293 26 30.7837 24.0124 30.9054 21.7687C31.0474 19.4562 31.0474 12.5312 30.9054 10.2187ZM27.6735 24.25C27.1461 25.475 26.1251 26.4187 24.7931 26.9125C22.7985 27.6437 18.0656 27.475 15.8614 27.475C13.6572 27.475 8.91747 27.6375 6.92963 26.9125C5.6044 26.425 4.58343 25.4812 4.04929 24.25C3.25821 22.4062 3.44076 18.0312 3.44076 15.9937C3.44076 13.9562 3.26497 9.57495 4.04929 7.73745C4.57667 6.51245 5.59764 5.5687 6.92963 5.07495C8.92423 4.3437 13.6572 4.51245 15.8614 4.51245C18.0656 4.51245 22.8053 4.34995 24.7931 5.07495C26.1184 5.56245 27.1393 6.5062 27.6735 7.73745C28.4646 9.5812 28.282 13.9562 28.282 15.9937C28.282 18.0312 28.4646 22.4125 27.6735 24.25Z" fill="white"/>
</g>
<defs>
<clipPath id="clip0_14_14">
<rect width="30.2909" height="32" fill="white" transform="translate(0.708984)"/>
</clipPath>
</defs>
</svg>
